<mxfile host="app.diagrams.net" modified="2021-07-12T01:22:13.877Z" agent="5.0 (Windows NT 10.0; Win64; x64) AppleWebKit/537.36 (KHTML, like Gecko) Chrome/91.0.4472.77 Safari/537.36" etag="9WOvJmo-Pao6RmDWzJLX" version="14.8.4" type="github">
  <diagram id="KOlG1i0jGZ5A2MOJkepX" name="第 1 页">
    <mxGraphModel dx="1502" dy="1492" grid="0" gridSize="10" guides="1" tooltips="1" connect="1" arrows="1" fold="1" page="0" pageScale="1" pageWidth="827" pageHeight="1169" math="0" shadow="0">
      <root>
        <mxCell id="0" />
        <mxCell id="1" parent="0" />
        <mxCell id="pPamELfXUy_U0_-Axu0I-19" value="" style="edgeStyle=orthogonalEdgeStyle;rounded=0;orthogonalLoop=1;jettySize=auto;html=1;" edge="1" parent="1" source="pPamELfXUy_U0_-Axu0I-17" target="pPamELfXUy_U0_-Axu0I-18">
          <mxGeometry relative="1" as="geometry" />
        </mxCell>
        <mxCell id="pPamELfXUy_U0_-Axu0I-22" style="edgeStyle=orthogonalEdgeStyle;rounded=0;orthogonalLoop=1;jettySize=auto;html=1;" edge="1" parent="1" source="pPamELfXUy_U0_-Axu0I-17" target="pPamELfXUy_U0_-Axu0I-21">
          <mxGeometry relative="1" as="geometry" />
        </mxCell>
        <mxCell id="pPamELfXUy_U0_-Axu0I-23" style="edgeStyle=orthogonalEdgeStyle;rounded=0;orthogonalLoop=1;jettySize=auto;html=1;" edge="1" parent="1" source="pPamELfXUy_U0_-Axu0I-17" target="pPamELfXUy_U0_-Axu0I-20">
          <mxGeometry relative="1" as="geometry" />
        </mxCell>
        <mxCell id="pPamELfXUy_U0_-Axu0I-25" style="edgeStyle=orthogonalEdgeStyle;rounded=0;orthogonalLoop=1;jettySize=auto;html=1;entryX=0.5;entryY=0;entryDx=0;entryDy=0;" edge="1" parent="1" source="pPamELfXUy_U0_-Axu0I-17" target="pPamELfXUy_U0_-Axu0I-24">
          <mxGeometry relative="1" as="geometry" />
        </mxCell>
        <mxCell id="pPamELfXUy_U0_-Axu0I-17" value="用户" style="shape=umlActor;verticalLabelPosition=bottom;verticalAlign=top;html=1;outlineConnect=0;" vertex="1" parent="1">
          <mxGeometry x="377" y="-521" width="30" height="60" as="geometry" />
        </mxCell>
        <mxCell id="pPamELfXUy_U0_-Axu0I-27" style="edgeStyle=orthogonalEdgeStyle;rounded=0;orthogonalLoop=1;jettySize=auto;html=1;entryX=0;entryY=0.5;entryDx=0;entryDy=0;exitX=0.5;exitY=1;exitDx=0;exitDy=0;" edge="1" parent="1" source="pPamELfXUy_U0_-Axu0I-18" target="pPamELfXUy_U0_-Axu0I-26">
          <mxGeometry relative="1" as="geometry" />
        </mxCell>
        <mxCell id="pPamELfXUy_U0_-Axu0I-18" value="医院" style="whiteSpace=wrap;html=1;verticalAlign=middle;" vertex="1" parent="1">
          <mxGeometry x="66" y="-382" width="120" height="60" as="geometry" />
        </mxCell>
        <mxCell id="pPamELfXUy_U0_-Axu0I-28" style="edgeStyle=orthogonalEdgeStyle;rounded=0;orthogonalLoop=1;jettySize=auto;html=1;" edge="1" parent="1" source="pPamELfXUy_U0_-Axu0I-20" target="pPamELfXUy_U0_-Axu0I-26">
          <mxGeometry relative="1" as="geometry" />
        </mxCell>
        <mxCell id="pPamELfXUy_U0_-Axu0I-20" value="APP" style="whiteSpace=wrap;html=1;verticalAlign=middle;" vertex="1" parent="1">
          <mxGeometry x="229" y="-382" width="120" height="60" as="geometry" />
        </mxCell>
        <mxCell id="pPamELfXUy_U0_-Axu0I-29" style="edgeStyle=orthogonalEdgeStyle;rounded=0;orthogonalLoop=1;jettySize=auto;html=1;" edge="1" parent="1" source="pPamELfXUy_U0_-Axu0I-21" target="pPamELfXUy_U0_-Axu0I-26">
          <mxGeometry relative="1" as="geometry" />
        </mxCell>
        <mxCell id="pPamELfXUy_U0_-Axu0I-21" value="页面" style="whiteSpace=wrap;html=1;verticalAlign=middle;" vertex="1" parent="1">
          <mxGeometry x="410" y="-382" width="120" height="60" as="geometry" />
        </mxCell>
        <mxCell id="pPamELfXUy_U0_-Axu0I-30" style="edgeStyle=orthogonalEdgeStyle;rounded=0;orthogonalLoop=1;jettySize=auto;html=1;entryX=1;entryY=0.5;entryDx=0;entryDy=0;exitX=0.5;exitY=1;exitDx=0;exitDy=0;" edge="1" parent="1" source="pPamELfXUy_U0_-Axu0I-24" target="pPamELfXUy_U0_-Axu0I-26">
          <mxGeometry relative="1" as="geometry" />
        </mxCell>
        <mxCell id="pPamELfXUy_U0_-Axu0I-24" value="自助机" style="whiteSpace=wrap;html=1;verticalAlign=middle;" vertex="1" parent="1">
          <mxGeometry x="572" y="-384" width="120" height="60" as="geometry" />
        </mxCell>
        <mxCell id="pPamELfXUy_U0_-Axu0I-32" value="" style="edgeStyle=orthogonalEdgeStyle;rounded=0;orthogonalLoop=1;jettySize=auto;html=1;" edge="1" parent="1" source="pPamELfXUy_U0_-Axu0I-26" target="pPamELfXUy_U0_-Axu0I-31">
          <mxGeometry relative="1" as="geometry" />
        </mxCell>
        <mxCell id="pPamELfXUy_U0_-Axu0I-26" value="各包不同的系统" style="rounded=0;whiteSpace=wrap;html=1;verticalAlign=middle;" vertex="1" parent="1">
          <mxGeometry x="330" y="-186" width="120" height="60" as="geometry" />
        </mxCell>
        <mxCell id="pPamELfXUy_U0_-Axu0I-34" value="" style="edgeStyle=orthogonalEdgeStyle;rounded=0;orthogonalLoop=1;jettySize=auto;html=1;" edge="1" parent="1" source="pPamELfXUy_U0_-Axu0I-31" target="pPamELfXUy_U0_-Axu0I-33">
          <mxGeometry relative="1" as="geometry" />
        </mxCell>
        <mxCell id="pPamELfXUy_U0_-Axu0I-31" value="他们在同步到ADB" style="rounded=0;whiteSpace=wrap;html=1;verticalAlign=middle;" vertex="1" parent="1">
          <mxGeometry x="330" y="-77" width="120" height="60" as="geometry" />
        </mxCell>
        <mxCell id="pPamELfXUy_U0_-Axu0I-36" value="" style="edgeStyle=orthogonalEdgeStyle;rounded=0;orthogonalLoop=1;jettySize=auto;html=1;" edge="1" parent="1" source="pPamELfXUy_U0_-Axu0I-33" target="pPamELfXUy_U0_-Axu0I-35">
          <mxGeometry relative="1" as="geometry" />
        </mxCell>
        <mxCell id="pPamELfXUy_U0_-Axu0I-33" value="然后同步到 dataworks" style="rounded=0;whiteSpace=wrap;html=1;verticalAlign=middle;" vertex="1" parent="1">
          <mxGeometry x="330" y="32" width="120" height="60" as="geometry" />
        </mxCell>
        <mxCell id="pPamELfXUy_U0_-Axu0I-38" value="" style="edgeStyle=orthogonalEdgeStyle;rounded=0;orthogonalLoop=1;jettySize=auto;html=1;" edge="1" parent="1" source="pPamELfXUy_U0_-Axu0I-35" target="pPamELfXUy_U0_-Axu0I-37">
          <mxGeometry relative="1" as="geometry" />
        </mxCell>
        <mxCell id="pPamELfXUy_U0_-Axu0I-35" value="然后同步给到我们的dataworks" style="rounded=0;whiteSpace=wrap;html=1;verticalAlign=middle;" vertex="1" parent="1">
          <mxGeometry x="330" y="150" width="120" height="60" as="geometry" />
        </mxCell>
        <mxCell id="pPamELfXUy_U0_-Axu0I-40" value="" style="edgeStyle=orthogonalEdgeStyle;rounded=0;orthogonalLoop=1;jettySize=auto;html=1;" edge="1" parent="1" source="pPamELfXUy_U0_-Axu0I-37" target="pPamELfXUy_U0_-Axu0I-39">
          <mxGeometry relative="1" as="geometry" />
        </mxCell>
        <mxCell id="pPamELfXUy_U0_-Axu0I-37" value="然后经过 处理" style="rounded=0;whiteSpace=wrap;html=1;verticalAlign=middle;" vertex="1" parent="1">
          <mxGeometry x="330" y="290" width="120" height="60" as="geometry" />
        </mxCell>
        <mxCell id="pPamELfXUy_U0_-Axu0I-46" value="" style="edgeStyle=orthogonalEdgeStyle;rounded=0;orthogonalLoop=1;jettySize=auto;html=1;" edge="1" parent="1" source="pPamELfXUy_U0_-Axu0I-39" target="pPamELfXUy_U0_-Axu0I-45">
          <mxGeometry relative="1" as="geometry" />
        </mxCell>
        <mxCell id="pPamELfXUy_U0_-Axu0I-39" value="同步到 ADB" style="rounded=0;whiteSpace=wrap;html=1;verticalAlign=middle;" vertex="1" parent="1">
          <mxGeometry x="330" y="394" width="120" height="60" as="geometry" />
        </mxCell>
        <mxCell id="pPamELfXUy_U0_-Axu0I-43" style="edgeStyle=orthogonalEdgeStyle;rounded=0;orthogonalLoop=1;jettySize=auto;html=1;" edge="1" parent="1" source="pPamELfXUy_U0_-Axu0I-41" target="pPamELfXUy_U0_-Axu0I-39">
          <mxGeometry relative="1" as="geometry" />
        </mxCell>
        <mxCell id="pPamELfXUy_U0_-Axu0I-44" value="查询ADB中的数据" style="edgeLabel;html=1;align=center;verticalAlign=middle;resizable=0;points=[];" vertex="1" connectable="0" parent="pPamELfXUy_U0_-Axu0I-43">
          <mxGeometry x="0.2339" y="1" relative="1" as="geometry">
            <mxPoint x="23" y="-1" as="offset" />
          </mxGeometry>
        </mxCell>
        <mxCell id="pPamELfXUy_U0_-Axu0I-41" value="业务库的SQL" style="whiteSpace=wrap;html=1;rounded=0;" vertex="1" parent="1">
          <mxGeometry x="615" y="394" width="120" height="60" as="geometry" />
        </mxCell>
        <mxCell id="pPamELfXUy_U0_-Axu0I-47" style="edgeStyle=orthogonalEdgeStyle;rounded=0;orthogonalLoop=1;jettySize=auto;html=1;entryX=0.5;entryY=1;entryDx=0;entryDy=0;" edge="1" parent="1" source="pPamELfXUy_U0_-Axu0I-45" target="pPamELfXUy_U0_-Axu0I-41">
          <mxGeometry relative="1" as="geometry" />
        </mxCell>
        <mxCell id="pPamELfXUy_U0_-Axu0I-45" value="返回结果" style="whiteSpace=wrap;html=1;rounded=0;" vertex="1" parent="1">
          <mxGeometry x="330" y="540" width="120" height="60" as="geometry" />
        </mxCell>
      </root>
    </mxGraphModel>
  </diagram>
</mxfile>
